<svg width="254" height="29" viewBox="0 0 254 29" fill="none" xmlns="http://www.w3.org/2000/svg">
<path d="M17.44 5.8V1.32H0.24V5.8H6.24V28H11.44V5.8H17.44ZM35.5353 1.32H20.7353V28H35.5353V23.52H25.9353V16.24H35.1353V11.76H25.9353V5.8H35.5353V1.32ZM45.7791 1.32H40.5791V28H45.7791V16.12H57.0591V28H62.2591V1.32H57.0591V11.64H45.7791V1.32ZM67.3125 21.04H77.7125V16.56H67.3125V21.04Z" fill="#8DB932"/>
<path d="M102.127 20.96C100.567 22.8 98.3666 23.88 95.8866 23.88C91.4066 23.88 86.8466 20.68 86.8466 14.76C86.8466 9.84 90.3266 5.44 95.6866 5.44C96.6466 5.44 99.6866 5.64 102.127 8.44V2.36C99.6866 1.04 97.4466 0.719998 95.5666 0.719998C91.7666 0.719998 88.4466 1.72 85.7666 4.24C83.4866 6.36 81.4866 9.84 81.4866 14.68C81.4866 18.6 82.6866 21.92 85.7666 24.88C88.0066 27 90.8466 28.6 95.5266 28.6C98.4066 28.6 100.527 27.88 102.127 27.04V20.96ZM106.907 1.32V28H120.347V23.52H112.107V1.32H106.907ZM123.938 1.32V28H129.138V1.32H123.938ZM133.868 28H139.148L141.868 11.56L148.708 28H150.468L157.628 11.56L160.028 28H165.308L160.828 1.32H157.068L149.668 18.28L142.588 1.32H138.828L133.868 28ZM188.192 28H193.792L182.632 1.32H178.552L167.072 28H172.712L175.072 22.4H185.832L188.192 28ZM176.712 18.16L180.512 8.56L184.312 18.16H176.712ZM209.94 5.8V1.32H192.74V5.8H198.74V28H203.94V5.8H209.94ZM211.334 25.4C211.334 27.16 212.694 28.52 214.454 28.52C216.214 28.52 217.574 27.16 217.574 25.4C217.574 23.64 216.214 22.28 214.454 22.28C212.694 22.28 211.334 23.64 211.334 25.4ZM221.812 28H226.692V19.68C226.692 18.48 226.732 17 227.652 15.84C228.612 14.64 229.972 14.44 230.892 14.44C231.892 14.44 232.532 14.64 233.172 15.08L233.812 10.52C233.252 10.32 232.572 10.12 231.732 10.12C230.572 10.12 229.612 10.4 228.852 10.88C228.492 11.08 227.452 11.8 226.692 13.28V10.68H221.812V28ZM236.226 10.68V21.28C236.226 22.84 236.426 24.92 238.346 26.6C239.946 28 242.506 28.56 244.626 28.56C246.746 28.56 249.306 28 250.906 26.6C252.826 24.92 253.026 22.84 253.026 21.28V10.68H248.146V20.48C248.146 21.4 248.066 22.64 247.106 23.52C246.506 24.04 245.546 24.4 244.626 24.4C243.706 24.4 242.746 24.04 242.146 23.52C241.186 22.64 241.106 21.4 241.106 20.48V10.68H236.226Z" fill="white"/>
</svg>
